<svg width="68" height="68" viewBox="0 0 68 68" fill="none" xmlns="http://www.w3.org/2000/svg">
<path d="M48.875 57.7575L43.3712 52.2538L40.375 55.25L48.875 63.75L63.75 48.875L60.7537 45.8788L48.875 57.7575Z" fill="white"/>
<path d="M23.375 19.125C24.5486 19.125 25.5 18.1736 25.5 17C25.5 15.8264 24.5486 14.875 23.375 14.875C22.2014 14.875 21.25 15.8264 21.25 17C21.25 18.1736 22.2014 19.125 23.375 19.125Z" fill="white"/>
<path d="M23.375 36.125C24.5486 36.125 25.5 35.1736 25.5 34C25.5 32.8264 24.5486 31.875 23.375 31.875C22.2014 31.875 21.25 32.8264 21.25 34C21.25 35.1736 22.2014 36.125 23.375 36.125Z" fill="white"/>
<path d="M23.375 53.125C24.5486 53.125 25.5 52.1736 25.5 51C25.5 49.8264 24.5486 48.875 23.375 48.875C22.2014 48.875 21.25 49.8264 21.25 51C21.25 52.1736 22.2014 53.125 23.375 53.125Z" fill="white"/>
<path d="M51 6.375H17C15.8728 6.375 14.7918 6.82277 13.9948 7.6198C13.1978 8.41683 12.75 9.49783 12.75 10.625V57.375C12.75 58.5022 13.1978 59.5832 13.9948 60.3802C14.7918 61.1772 15.8728 61.625 17 61.625H34V57.375H17V44.625H55.25V10.625C55.25 9.49783 54.8022 8.41683 54.0052 7.6198C53.2082 6.82277 52.1272 6.375 51 6.375ZM51 40.375H17V27.625H51V40.375ZM51 23.375H17V10.625H51V23.375Z" fill="white"/>
</svg>
