<svg width="56" height="52" viewBox="0 0 56 52" fill="none" xmlns="http://www.w3.org/2000/svg">
<path d="M51.375 0.625H4.625C3.49783 0.625 2.41683 1.07277 1.6198 1.8698C0.822766 2.66683 0.375 3.74783 0.375 4.875V41C0.375 42.1272 0.822766 43.2082 1.6198 44.0052C2.41683 44.8022 3.49783 45.25 4.625 45.25H8.875V49.5C8.875 50.0636 9.09888 50.6041 9.4974 51.0026C9.89591 51.4011 10.4364 51.625 11 51.625C11.5636 51.625 12.1041 51.4011 12.5026 51.0026C12.9011 50.6041 13.125 50.0636 13.125 49.5V45.25H42.875V49.5C42.875 50.0636 43.0989 50.6041 43.4974 51.0026C43.8959 51.4011 44.4364 51.625 45 51.625C45.5636 51.625 46.1041 51.4011 46.5026 51.0026C46.9011 50.6041 47.125 50.0636 47.125 49.5V45.25H51.375C52.5022 45.25 53.5832 44.8022 54.3802 44.0052C55.1772 43.2082 55.625 42.1272 55.625 41V4.875C55.625 3.74783 55.1772 2.66683 54.3802 1.8698C53.5832 1.07277 52.5022 0.625 51.375 0.625ZM51.375 41H4.625V4.875H51.375V21.875H46.9391C46.4062 18.7228 44.7087 15.8858 42.1827 13.9261C39.6568 11.9665 36.4869 11.0273 33.3012 11.2947C30.1154 11.562 27.1464 13.0164 24.9824 15.3696C22.8184 17.7228 21.6174 20.8031 21.6174 24C21.6174 27.1969 22.8184 30.2772 24.9824 32.6304C27.1464 34.9836 30.1154 36.438 33.3012 36.7053C36.4869 36.9727 39.6568 36.0335 42.1827 34.0739C44.7087 32.1143 46.4062 29.2772 46.9391 26.125H51.375V41ZM38.0406 21.875C37.6731 21.2275 37.1398 20.6894 36.4957 20.316C35.8515 19.9425 35.1196 19.7472 34.375 19.75C33.2478 19.75 32.1668 20.1978 31.3698 20.9948C30.5728 21.7918 30.125 22.8728 30.125 24C30.125 25.1272 30.5728 26.2082 31.3698 27.0052C32.1668 27.8022 33.2478 28.25 34.375 28.25C35.1196 28.2528 35.8515 28.0575 36.4957 27.684C37.1398 27.3106 37.6731 26.7725 38.0406 26.125H42.6094C42.0922 28.1281 40.8621 29.8739 39.1499 31.035C37.4376 32.1962 35.3606 32.6929 33.3082 32.4323C31.2559 32.1716 29.3691 31.1713 28.0014 29.619C26.6338 28.0667 25.8793 26.0688 25.8793 24C25.8793 21.9312 26.6338 19.9333 28.0014 18.381C29.3691 16.8287 31.2559 15.8284 33.3082 15.5677C35.3606 15.3071 37.4376 15.8038 39.1499 16.965C40.8621 18.1261 42.0922 19.8719 42.6094 21.875H38.0406Z" fill="white"/>
</svg>
