<svg width="21" height="20" viewBox="0 0 21 20" fill="none" xmlns="http://www.w3.org/2000/svg">
<path d="M10.5 0C13.217 0 13.556 0.00999994 14.622 0.0599999C15.687 0.11 16.412 0.277 17.05 0.525C17.71 0.779 18.266 1.123 18.822 1.678C19.3305 2.1779 19.724 2.78259 19.975 3.45C20.222 4.087 20.39 4.813 20.44 5.878C20.487 6.944 20.5 7.283 20.5 10C20.5 12.717 20.49 13.056 20.44 14.122C20.39 15.187 20.222 15.912 19.975 16.55C19.7247 17.2178 19.3311 17.8226 18.822 18.322C18.322 18.8303 17.7173 19.2238 17.05 19.475C16.413 19.722 15.687 19.89 14.622 19.94C13.556 19.987 13.217 20 10.5 20C7.783 20 7.444 19.99 6.378 19.94C5.313 19.89 4.588 19.722 3.95 19.475C3.28233 19.2245 2.67753 18.8309 2.178 18.322C1.66941 17.8222 1.27593 17.2175 1.025 16.55C0.777 15.913 0.61 15.187 0.56 14.122C0.513 13.056 0.5 12.717 0.5 10C0.5 7.283 0.51 6.944 0.56 5.878C0.61 4.812 0.777 4.088 1.025 3.45C1.27524 2.78218 1.6688 2.17732 2.178 1.678C2.67767 1.16923 3.28243 0.775729 3.95 0.525C4.588 0.277 5.312 0.11 6.378 0.0599999C7.444 0.0129999 7.783 0 10.5 0ZM10.5 5C9.17392 5 7.90215 5.52678 6.96447 6.46447C6.02678 7.40215 5.5 8.67392 5.5 10C5.5 11.3261 6.02678 12.5979 6.96447 13.5355C7.90215 14.4732 9.17392 15 10.5 15C11.8261 15 13.0979 14.4732 14.0355 13.5355C14.9732 12.5979 15.5 11.3261 15.5 10C15.5 8.67392 14.9732 7.40215 14.0355 6.46447C13.0979 5.52678 11.8261 5 10.5 5ZM17 4.75C17 4.41848 16.8683 4.10054 16.6339 3.86612C16.3995 3.6317 16.0815 3.5 15.75 3.5C15.4185 3.5 15.1005 3.6317 14.8661 3.86612C14.6317 4.10054 14.5 4.41848 14.5 4.75C14.5 5.08152 14.6317 5.39946 14.8661 5.63388C15.1005 5.8683 15.4185 6 15.75 6C16.0815 6 16.3995 5.8683 16.6339 5.63388C16.8683 5.39946 17 5.08152 17 4.75ZM10.5 7C11.2956 7 12.0587 7.31607 12.6213 7.87868C13.1839 8.44129 13.5 9.20435 13.5 10C13.5 10.7956 13.1839 11.5587 12.6213 12.1213C12.0587 12.6839 11.2956 13 10.5 13C9.70435 13 8.94129 12.6839 8.37868 12.1213C7.81607 11.5587 7.5 10.7956 7.5 10C7.5 9.20435 7.81607 8.44129 8.37868 7.87868C8.94129 7.31607 9.70435 7 10.5 7Z" fill="white"/>
</svg>
