<svg width="25" height="24" viewBox="0 0 25 24" fill="none" xmlns="http://www.w3.org/2000/svg">
<path d="M5.20553 0.00610352C2.62033 0.00610352 0.504486 2.1219 0.504486 4.70715V19.2953C0.504486 21.8805 2.62028 23.9956 5.20553 23.9956H19.7937C22.379 23.9956 24.494 21.8806 24.494 19.2953V4.70715C24.494 2.12194 22.379 0.00610352 19.7937 0.00610352H5.20553ZM6.38792 3.96486C7.62747 3.96486 8.39098 4.7786 8.41455 5.84826C8.41455 6.8943 7.62742 7.73091 6.36394 7.73091H6.34069C5.12473 7.73091 4.3388 6.89434 4.3388 5.84826C4.3388 4.77862 5.14851 3.96486 6.38789 3.96486H6.38792ZM17.0698 8.9643C19.4537 8.9643 21.2408 10.5224 21.2408 13.8708V20.1215H17.6179V14.2898C17.6179 12.8244 17.0936 11.8246 15.7825 11.8246C14.7816 11.8246 14.185 12.4985 13.9231 13.1495C13.8274 13.3824 13.8039 13.7076 13.8039 14.0334V20.1215H10.181C10.181 20.1215 10.2285 10.2428 10.181 9.21994H13.8046V10.7637C14.2861 10.0209 15.1472 8.96427 17.0698 8.96427V8.9643ZM4.55249 9.22074H8.17537V20.1216H4.55249V9.22074Z" fill="white"/>
</svg>
