<svg width="18" height="21" viewBox="0 0 18 21" fill="none" xmlns="http://www.w3.org/2000/svg">
<path d="M9 0.513672L6.38281 1.82227L9 3.13281L11.6172 1.82227L9 0.513672ZM4.14648 2.94141L0.882812 4.57227L3.5 5.88281L6.76367 4.25L4.14648 2.94141ZM13.8535 2.94141L11.2363 4.25L14.5 5.88281L17.1172 4.57227L13.8535 2.94141ZM9 5.36719L5.73633 7L9 8.63281L12.2637 7L9 5.36719ZM0 6.36719V16.25L3 17.75V7.86719L0 6.36719ZM18 6.36719L15 7.86719V17.75L18 16.25V6.36719ZM5 8.86719V18.75L8 20.25V10.3672L5 8.86719ZM13 8.86719L10 10.3672V20.25L13 18.75V8.86719Z" fill="white"/>
</svg>
